<?xml version="1.0" standalone="no"?>
<!DOCTYPE svg PUBLIC "-//W3C//DTD SVG 20010904//EN"
 "http://www.w3.org/TR/2001/REC-SVG-20010904/DTD/svg10.dtd">
<svg version="1.0" xmlns="http://www.w3.org/2000/svg"
 width="416.000000pt" height="589.000000pt" viewBox="0 0 416.000000 589.000000"
 preserveAspectRatio="xMidYMid meet">

<g transform="translate(0.000000,589.000000) scale(0.100000,-0.100000)"
fill="#000000" stroke="none">
<path d="M611 5348 c0 -16 -6 -28 -12 -28 -6 0 -9 6 -6 13 3 8 -5 12 -24 12
-21 1 -29 -4 -29 -17 0 -11 7 -18 18 -18 14 0 15 2 2 10 -10 7 -11 10 -2 10 7
0 21 -5 32 -12 24 -16 33 -7 27 29 l-4 28 -2 -27z"/>
<path d="M721 5344 c-1 -28 2 -31 25 -31 18 0 22 2 13 8 -11 7 -10 9 4 9 9 0
17 4 17 8 0 15 -40 8 -41 -8 -1 -8 -5 -1 -9 15 l-8 30 -1 -31z"/>
<path d="M819 5358 c-1 -7 -1 -19 0 -25 3 -20 -17 -15 -22 5 -4 13 -5 11 -6
-5 -1 -17 5 -23 19 -23 16 0 20 7 20 30 0 29 -9 43 -11 18z"/>
<path d="M512 5330 c0 -14 2 -19 5 -12 2 6 2 18 0 25 -3 6 -5 1 -5 -13z"/>
<path d="M633 5328 c-1 -12 5 -18 18 -18 12 0 19 7 19 19 0 25 -36 24 -37 -1z"/>
<path d="M680 5320 c0 -6 7 -10 15 -10 8 0 15 2 15 4 0 2 -7 6 -15 10 -8 3
-15 1 -15 -4z"/>
</g>
</svg>
