<?xml version="1.0" standalone="no"?>
<!DOCTYPE svg PUBLIC "-//W3C//DTD SVG 20010904//EN"
 "http://www.w3.org/TR/2001/REC-SVG-20010904/DTD/svg10.dtd">
<svg version="1.0" xmlns="http://www.w3.org/2000/svg"
 width="128.000000pt" height="128.000000pt" viewBox="0 0 128.000000 128.000000"
 preserveAspectRatio="xMidYMid meet">

<g transform="translate(0.000000,128.000000) scale(0.100000,-0.100000)"
fill="#000000" stroke="none">
<path d="M120 645 l0 -525 525 0 525 0 0 355 0 355 -250 0 -250 0 -2 168 -3
167 -272 3 -273 2 0 -525z m500 330 l0 -145 -230 0 -230 0 0 145 0 145 230 0
230 0 0 -145z m500 -330 l0 -145 -480 0 -480 0 0 145 0 145 480 0 480 0 0
-145z m0 -340 l0 -145 -480 0 -480 0 0 145 0 145 480 0 480 0 0 -145z"/>
<path d="M720 1020 l0 -140 220 0 220 0 0 140 0 140 -220 0 -220 0 0 -140z"/>
</g>
</svg>
