<?xml version="1.0" encoding="UTF-8"?>
<svg version="1.1" xmlns="http://www.w3.org/2000/svg" width="180" height="180">
<path d="M0 0 C59.4 0 118.8 0 180 0 C180 59.4 180 118.8 180 180 C120.6 180 61.2 180 0 180 C0 120.6 0 61.2 0 0 Z " fill="#2B2A27" transform="translate(0,0)"/>
<path d="M0 0 C59.4 0 118.8 0 180 0 C180 59.4 180 118.8 180 180 C120.6 180 61.2 180 0 180 C0 120.6 0 61.2 0 0 Z M16 16 C16 64.84 16 113.68 16 164 C65.17 164 114.34 164 165 164 C165 130.67 165 97.34 165 63 C141.57 63 118.14 63 94 63 C94 47.49 94 31.98 94 16 C68.26 16 42.52 16 16 16 Z " fill="#F8F8F8" transform="translate(0,0)"/>
<path d="M0 0 C44.55 0 89.1 0 135 0 C135 13.2 135 26.4 135 40 C90.45 40 45.9 40 0 40 C0 26.8 0 13.6 0 0 Z " fill="#FFFFFF" transform="translate(23,117)"/>
<path d="M0 0 C44.55 0 89.1 0 135 0 C135 13.2 135 26.4 135 40 C90.45 40 45.9 40 0 40 C0 26.8 0 13.6 0 0 Z " fill="#FFFFFF" transform="translate(23,70)"/>
<path d="M0 0 C21.12 0 42.24 0 64 0 C64 13.2 64 26.4 64 40 C42.88 40 21.76 40 0 40 C0 26.8 0 13.6 0 0 Z " fill="#FFFFFF" transform="translate(23,23)"/>
<path d="M0 0 C21.12 0 42.24 0 64 0 C64 13.2 64 26.4 64 40 C42.88 40 21.76 40 0 40 C0 26.8 0 13.6 0 0 Z " fill="#1E1C19" transform="translate(100,16)"/>
</svg>
