<?xml version="1.0" encoding="UTF-8" standalone="no"?>
<!DOCTYPE svg PUBLIC "-//W3C//DTD SVG 1.1//EN" "http://www.w3.org/Graphics/SVG/1.1/DTD/svg11.dtd">
<!-- Created with Vectornator (http://vectornator.io/) -->
<svg height="100%" stroke-miterlimit="10" style="fill-rule:nonzero;clip-rule:evenodd;stroke-linecap:round;stroke-linejoin:round;" version="1.1" viewBox="0 0 100 100" width="100%" xml:space="preserve" xmlns="http://www.w3.org/2000/svg" xmlns:vectornator="http://vectornator.io" xmlns:xlink="http://www.w3.org/1999/xlink">
<defs/>
<path d="M0 0L100 0L100 100L0 100L0 0Z" fill="#ffffff" fill-rule="nonzero" opacity="1" stroke="none"/>
<g id="Layer-1" vectornator:layerName="Layer 1">
<path d="M0 0L100 0L100 100L0 100L0 0Z" fill="#f3f2f1" fill-rule="nonzero" opacity="1" stroke="none" vectornator:layerName="path"/>
<path d="M1.1875 67L98.875 67L98.875 98.75L1.1875 98.75L1.1875 67ZM1.1875 34.0625L98.875 34.0625L98.875 65.8125L1.1875 65.8125L1.1875 34.0625ZM1.1875 1.1875L49.4375 1.1875L49.4375 32.9375L1.1875 32.9375L1.1875 1.1875ZM50.5625 1.1875L98.8125 1.1875L98.8125 32.9375L50.5625 32.9375L50.5625 1.1875ZM50.5625 0L0 0L0 100L100 100L100 0L50.5625 0Z" fill="#000000" fill-rule="nonzero" opacity="1" stroke="none" vectornator:layerName="path 1"/>
<path d="M13.3125 12.1875L9.9375 12.1875L9.9375 10.3125L18.875 10.3125L18.875 12.1875L15.5 12.1875L15.5 23.6875L13.3125 23.6875L13.3125 12.1875ZM19.75 10.3125L21.875 10.3125L21.875 15.9375L27.125 15.9375L27.125 10.3125L29.25 10.3125L29.25 23.6875L27.125 23.6875L27.125 17.875L21.875 17.875L21.875 23.6875L19.75 23.6875L19.75 10.3125ZM31.8125 10.3125L39.4375 10.3125L39.4375 12.1875L33.9375 12.1875L33.9375 16L38.5625 16L38.5625 17.875L33.9375 17.875L33.9375 21.8125L39.4375 21.8125L39.4375 23.6875L31.8125 23.6875L31.8125 10.3125ZM12.3125 43.25L14.6875 43.25L18.6875 51.0625C19.0625 51.75 19.375 52.75 19.6875 53.5625L19.8125 53.5625C19.6875 52.5 19.625 51.3125 19.625 50.5625L19.625 43.25L21.8125 43.25L21.8125 56.625L19.5 56.625L15.5625 48.9375C15.125 48.0625 14.8125 47.25 14.5 46.3125L14.375 46.3125C14.5 47.1875 14.5625 48.375 14.5625 49.4375L14.5625 56.625L12.375 56.625C12.3125 56.625 12.3125 43.25 12.3125 43.25ZM29.875 51.625L28.8125 47.6875C28.625 47 28.4375 46.3125 28.25 45.3125L28.125 45.3125C27.9375 46.3125 27.8125 46.9375 27.625 47.6875L26.5625 51.625L29.875 51.625ZM26.875 43.25L29.5 43.25L33.375 56.625L31.1875 56.625L30.25 53.375L26.125 53.375L25.25 56.625L23 56.625L26.875 43.25ZM35.75 45.1875L32.375 45.1875L32.375 43.25L41.25 43.25L41.25 45.1875L37.875 45.1875L37.875 56.6875L35.75 56.6875L35.75 45.1875ZM42.375 43.25L44.5625 43.25L44.5625 56.625L42.375 56.625L42.375 43.25ZM54.6875 50C54.6875 46.6875 53.625 45 51.6875 45C49.6875 45 48.6875 46.6875 48.6875 50C48.6875 53.25 49.6875 54.9375 51.6875 54.9375C53.6875 54.9375 54.6875 53.25 54.6875 50M46.375 50C46.375 45.625 48.25 43.0625 51.6875 43.0625C55.0625 43.0625 56.9375 45.625 56.9375 50C56.9375 54.3125 55.0625 56.875 51.6875 56.875C48.3125 56.875 46.375 54.3125 46.375 50M58.9375 43.25L61.25 43.25L65.25 51.0625C65.625 51.75 66 52.75 66.3125 53.5625L66.4375 53.5625C66.3125 52.5 66.25 51.3125 66.25 50.5625L66.25 43.25L68.375 43.25L68.375 56.625L66.0625 56.625L62.125 48.9375C61.6875 48.0625 61.375 47.25 61.0625 46.3125L60.9375 46.3125C61.0625 47.1875 61.125 48.375 61.125 49.4375L61.125 56.625L58.9375 56.625L58.9375 43.25ZM76.5 51.625L75.4375 47.6875C75.25 47 75.0625 46.3125 74.875 45.3125L74.75 45.3125C74.5625 46.3125 74.4375 46.9375 74.25 47.6875L73.1875 51.625L76.5 51.625ZM73.5 43.25L76.125 43.25L80 56.625L77.8125 56.625L76.875 53.375L72.75 53.375L71.875 56.625L69.625 56.625C69.625 56.625 73.5 43.25 73.5 43.25ZM81.1875 43.25L83.375 43.25L83.375 54.75L88.625 54.75L88.625 56.6875L81.1875 56.6875L81.1875 43.25ZM16.8125 84.5L15.75 80.5625C15.5625 79.875 15.375 79.1875 15.1875 78.1875L15.0625 78.1875C14.875 79.1875 14.75 79.8125 14.5625 80.5625L13.5 84.5L16.8125 84.5ZM13.8125 76.125L16.4375 76.125L20.3125 89.5L18.125 89.5L17.1875 86.25L13.0625 86.25L12.1875 89.5L9.9375 89.5L13.8125 76.125ZM24.9375 82.8125C26.5 82.8125 27.0625 81.8125 27.0625 80.375C27.0625 79 26.4375 78 24.9375 78L23.25 78L23.25 82.8125L24.9375 82.8125ZM21.125 76.125L25.125 76.125C27.9375 76.125 29.3125 77.625 29.3125 80.25C29.3125 82.1875 28.375 83.75 27 84.1875L27 84.3125C27.625 85 29.5 89 30 89.25L30 89.5625L27.625 89.5625C27 89.1875 25.375 85.0625 24.875 84.6875L23.3125 84.6875L23.3125 89.5625L21.125 89.5625L21.125 76.125ZM33.0625 82.8125C33.0625 86.125 34.25 87.8125 36.0625 87.8125C37.875 87.8125 38.5625 86.5625 38.5625 84.5625L40.75 84.625C40.75 84.75 40.8125 84.875 40.8125 85C40.8125 87.75 39.5 89.6875 36.125 89.6875C32.875 89.6875 30.8125 87.25 30.8125 82.75C30.8125 78.3125 32.875 75.875 36.125 75.875C40.125 75.875 40.8125 78.75 40.8125 80.375C40.8125 80.5625 40.8125 80.8125 40.75 80.9375L38.5625 81C38.5625 78.9375 37.8125 77.75 36.0625 77.75C34.25 77.875 33.0625 79.5625 33.0625 82.8125M42.5 76.125L44.6875 76.125L44.6875 81.8125L49.875 81.8125L49.875 76.125L52.0625 76.125L52.0625 89.5625L49.875 89.5625L49.875 83.6875L44.6875 83.6875L44.6875 89.5625L42.5 89.5625L42.5 76.125ZM54.9375 76.125L57.125 76.125L57.125 89.5L54.9375 89.5L54.9375 76.125ZM58.875 76.125L61.125 76.125L63.125 83.8125C63.4375 85 63.625 86.0625 63.8125 87.3125L63.9375 87.3125C64.125 86.0625 64.3125 85 64.625 83.8125L66.625 76.125L68.875 76.125L65.0625 89.5L62.5 89.5C62.5 89.5 58.875 76.125 58.875 76.125ZM70.4375 76.125L78.125 76.125L78.125 78.0625L72.625 78.0625L72.625 81.8125L77.25 81.8125L77.25 83.6875L72.625 83.6875L72.625 87.625L78.125 87.625L78.125 89.5625L70.4375 89.5625L70.4375 76.125ZM81.5 85C81.5 85.125 81.4375 85.3125 81.4375 85.5C81.4375 86.6875 81.9375 87.8125 83.5625 87.8125C84.875 87.8125 85.625 87.0625 85.625 86C85.625 85 85.1875 84.5 84.25 84.125L82.125 83.3125C80.625 82.75 79.5 81.8125 79.5 79.75C79.5 77.5625 80.9375 75.9375 83.625 75.9375C87.0625 75.9375 87.625 78.1875 87.625 79.625C87.625 79.8125 87.625 80.0625 87.5625 80.3125L85.4375 80.375C85.4375 80.25 85.5 80.0625 85.5 79.9375C85.5 78.875 85.125 77.9375 83.625 77.9375C82.3125 77.9375 81.75 78.6875 81.75 79.6875C81.75 80.75 82.3125 81.25 83.125 81.5L85.3125 82.3125C86.9375 82.9375 88 83.9375 88 85.9375C88 88.1875 86.5 89.75 83.625 89.75C79.9375 89.75 79.375 87.3125 79.375 85.6875C79.375 85.5 79.375 85.3125 79.4375 85.0625C79.4375 85.0625 81.5 85 81.5 85Z" fill="#000000" fill-rule="nonzero" opacity="1" stroke="none" vectornator:layerName="path 2"/>
</g>
</svg>
